<svg width="24" height="24" viewBox="0 0 24 24" fill="none" xmlns="http://www.w3.org/2000/svg">
<path d="M18.25 7.125H5.75C5.33579 7.125 5 7.46079 5 7.875L4 19.875C4 20.2892 4.33579 20.625 4.75 20.625H19.25C19.6642 20.625 20 20.2892 20 19.875L19 7.875C19 7.46079 18.6642 7.125 18.25 7.125Z" stroke="#363636" stroke-linecap="round" stroke-linejoin="round"/>
<path d="M8.25 10V7.125C8.25 6.13044 8.64509 5.17661 9.34835 4.47335C10.0516 3.77009 11.0054 3.375 12 3.375C12.9946 3.375 13.9484 3.77009 14.6517 4.47335C15.3549 5.17661 15.75 6.13044 15.75 7.125V10" stroke="#363636" stroke-linecap="round" stroke-linejoin="round"/>
</svg>
