<svg width="24" height="24" viewBox="0 0 24 24" fill="none" xmlns="http://www.w3.org/2000/svg">
<path d="M11.9998 2.25C10.0346 2.25 8.14983 3.03069 6.76018 4.42034C5.37054 5.80998 4.58984 7.69475 4.58984 9.66V10.2C4.88984 14.26 8.25984 17.525 11.9998 21.75C15.9048 17.34 19.4098 14 19.4098 9.66C19.4098 7.69475 18.6292 5.80998 17.2395 4.42034C15.8499 3.03069 13.9651 2.25 11.9998 2.25ZM11.9998 6.1C12.7051 6.1 13.3946 6.30921 13.981 6.70116C14.5673 7.09311 15.0243 7.65018 15.294 8.30189C15.5636 8.9536 15.6339 9.67066 15.496 10.3623C15.358 11.054 15.018 11.6892 14.5189 12.1876C14.0198 12.686 13.3841 13.0251 12.6923 13.1621C12.0004 13.2991 11.2834 13.2278 10.6321 12.9572C9.98078 12.6866 9.42435 12.2289 9.03322 11.642C8.6421 11.0551 8.43385 10.3653 8.43484 9.66C8.43617 8.71537 8.81235 7.80988 9.48077 7.1424C10.1492 6.47491 11.0552 6.1 11.9998 6.1Z" stroke="#363636" stroke-linecap="round" stroke-linejoin="round"/>
</svg>
